<svg width="188" height="180" viewBox="0 0 188 180" fill="none" xmlns="http://www.w3.org/2000/svg">
<path d="M165.591 14.6949C169.623 10.9491 166.839 3.64971 164.152 0H187.766C189.782 17.2881 178.551 28.8135 162.135 36.5931C145.72 44.3728 136.505 46.1016 110.01 48.6948C96.7629 50.4236 80.3478 57.7422 69.9803 82.4066C67.2924 87.7851 60.304 104.19 53.8531 126.779C45.7895 155.017 30.2384 185.271 1.52588e-05 179.22V130.237C15.8392 131.678 21.8537 126.538 32.2543 111.796C42.6218 97.1014 44.0616 73.1862 64.5086 51.8643C80.8941 34.7775 99.0665 28.825 117.21 27.3728C160.408 23.9152 161.559 18.4406 165.591 14.6949Z" fill="#D30724"/>
</svg>
