<svg width="188" height="180" viewBox="0 0 188 180" fill="none" xmlns="http://www.w3.org/2000/svg">
<path d="M22.4087 14.6949C18.3767 10.9491 21.1606 3.64971 23.8484 0H0.233732C-1.78205 17.2881 9.44944 28.8135 25.8646 36.5931C42.2797 44.3728 51.4951 46.1016 77.9898 48.6948C91.2371 50.4236 107.652 57.7422 118.02 82.4066C120.708 87.7851 127.696 104.19 134.147 126.779C142.21 155.017 157.762 185.271 188 179.22V130.237C172.161 131.678 166.146 126.538 155.746 111.796C145.378 97.1014 143.938 73.1862 123.491 51.8643C107.106 34.7775 88.9335 28.825 70.7902 27.3728C27.5924 23.9152 26.4407 18.4406 22.4087 14.6949Z" fill="#D30724"/>
</svg>
