<svg width="188" height="180" viewBox="0 0 188 180" fill="none" xmlns="http://www.w3.org/2000/svg">
<path d="M22.4087 165.305C18.3767 169.051 21.1606 176.35 23.8484 180L0.233732 180C-1.78205 162.712 9.44944 151.187 25.8646 143.407C42.2797 135.627 51.4951 133.898 77.9898 131.305C91.2371 129.576 107.652 122.258 118.02 97.5935C120.708 92.2149 127.696 75.8105 134.147 53.2207C142.21 24.9835 157.762 -5.27068 188 0.780154L188 49.7631C172.161 48.3224 166.146 53.4618 155.746 68.2037C145.378 82.8986 143.938 106.814 123.491 128.136C107.106 145.222 88.9335 151.175 70.7902 152.627C27.5924 156.085 26.4407 161.559 22.4087 165.305Z" fill="#D30724"/>
</svg>
