<svg width="274" height="95" viewBox="0 0 274 95" fill="none" xmlns="http://www.w3.org/2000/svg">
<path d="M142.312 31.5472C177.764 49.6151 198.876 45.369 208.244 41.2264C226.258 33.26 226.258 15.9709 226.258 0H267.33C271.293 9.32075 273.815 32.9811 273.815 34.0566C275.256 53.7736 268.411 79.2264 248.235 88.1887C228.059 97.1509 199.597 91.0566 175.098 77.434C150.598 63.8113 121.055 51.2641 97.6367 47.3208C74.2183 43.3774 61.9687 51.2641 39.2709 70.6226C21.1126 86.1094 5.52434 93.327 0 95V69.1887C7.20566 65.1736 11.5291 60.9434 27.0212 47.3208C42.5134 33.6981 64.851 22.2739 90.4311 21.1509C110.401 20.2743 133.305 27.2453 142.312 31.5472Z" fill="#FBFAFA"/>
</svg>
