<svg width="130" height="267" viewBox="0 0 130 267" fill="none" xmlns="http://www.w3.org/2000/svg">
<path d="M90.5669 29.3967C96.5887 19.6533 119.271 27.4481 130 34.2685V6.70833C117.515 0.1384 104.919 -0.390535 100.181 0.166239C62.699 3.0893 65.4858 53.7557 74.6822 80.3416C81.5855 100.298 83.0426 101.221 87.3621 119.316C88.7555 159.125 40.4047 192.81 17.971 218.004C0.0241021 238.159 -1.11848 259.066 0.553592 267H70.3627C58.7696 262.434 53.9206 252.57 52.9453 248.209C47.6504 221.762 74.5429 196.707 83.0426 187.66C89.8424 180.422 95.258 171.653 97.1159 168.173C113.948 140.445 109.146 107.809 104.64 94.9568C101.853 82.9862 80.6738 45.404 90.5669 29.3967Z" fill="#D30724"/>
</svg>
