<svg width="63" height="71" viewBox="0 0 63 71" fill="none" xmlns="http://www.w3.org/2000/svg">
<g clip-path="url(#clip0_803_597)">
<path fill-rule="evenodd" clip-rule="evenodd" d="M56.207 35.8994C53.5513 48.2346 39.3135 63.5572 20.7386 48.8237C8.99875 39.5207 -6.21328 13.3999 2.65535 2.59578C5.69957 -1.11226 11.2721 -0.394572 15.6942 1.92893C21.634 5.04787 32.0292 14.4824 39.6079 10.7026C43.7843 8.60939 46.0515 6.02572 51.8213 4.61427C61.388 2.27582 63.7523 8.39707 62.8054 13.5823C60.9661 23.6838 46.4127 41.5093 34.1174 48.0073C43.244 41.4704 29.6679 16.5039 24.056 12.9783C12.5923 5.77752 5.94238 9.95206 8.6406 21.7191C11.0262 32.1465 19.5549 43.4291 26.3748 48.4648C41.9207 59.9388 53.1506 43.6324 56.207 35.8994Z" fill="#D30724"/>
<path fill-rule="evenodd" clip-rule="evenodd" d="M56.207 35.8994C53.5513 48.2346 39.3135 63.5572 20.7386 48.8237C8.99875 39.5207 -6.21328 13.3999 2.65535 2.59578C5.69957 -1.11226 11.2721 -0.394572 15.6942 1.92893C21.634 5.04787 32.0292 14.4824 39.6079 10.7026C43.7843 8.60939 46.0515 6.02572 51.8213 4.61427C61.388 2.27582 63.7523 8.39707 62.8054 13.5823C60.9661 23.6838 46.4127 41.5093 34.1174 48.0073C43.244 41.4704 61.2271 16.5039 57.3391 8.98019C55.4209 5.27215 46.9802 11.6685 45.3291 12.748C37.6503 17.7778 29.6679 16.5039 24.056 12.9783C12.5923 5.77752 5.94238 9.95206 8.6406 21.7191C11.0262 32.1465 19.5549 43.4291 26.3748 48.4648C41.9207 59.9388 53.1506 43.6324 56.207 35.8994Z" fill="#0E0D0D"/>
<path d="M4.66195 66.5087L2.42203 54.9629H0V70.8895H1.815V64.0745L1.49024 59.0627L3.71499 70.7609L3.73927 70.8895H5.59069L7.83972 59.1643L7.46943 64.0745V70.8895H9.28443V54.9629H6.84116L4.66195 66.5087Z" fill="#0E0D0D"/>
<path d="M12.1162 68.0755L12.3863 64.3076V58.5303H10.6624V70.8894H12.8841L16.0618 61.3233L15.7765 65.7819V70.8894H17.5005V58.5303H15.2788L12.1162 68.0755Z" fill="#0E0D0D"/>
<path d="M26.7122 58.5303H22.8394V70.8894H26.7122C27.9626 70.8894 28.9794 69.8876 28.9794 68.6556V65.9135C28.9794 65.3333 28.6759 64.6276 28.0142 64.2747C28.6031 63.9309 28.9794 63.3178 28.9794 62.657V60.785C28.9764 59.541 27.9626 58.5303 26.7122 58.5303ZM24.5633 65.136H26.348C26.8457 65.136 27.2524 65.5367 27.2524 66.0271V68.6586C27.2524 68.9517 27.0096 69.1909 26.7122 69.1909H24.5633V65.136ZM26.351 63.4374H24.5663V60.2527H26.7152C27.0126 60.2527 27.2555 60.4919 27.2555 60.785V62.5463C27.2524 63.0367 26.8487 63.4374 26.351 63.4374Z" fill="#0E0D0D"/>
<path d="M37.3744 58.5303H31.4407V62.4357C31.4407 64.813 31.4408 67.0618 30.5666 69.1909H29.562V70.9283H38.4397V69.1909H37.3744V58.5303ZM35.6292 60.2527V69.1909H32.4393C33.189 66.984 33.189 64.7711 33.189 62.4357V60.2527H35.6292Z" fill="#0E0D0D"/>
<path d="M43.032 58.5303H41.4021C40.1517 58.5303 39.1379 59.541 39.1379 60.785V68.6586C39.1379 69.8906 40.1547 70.8924 41.4021 70.8924H43.032C44.2825 70.8924 45.2992 69.8906 45.2992 68.6586V60.785C45.2992 59.541 44.2825 58.5303 43.032 58.5303ZM40.8619 60.785C40.8619 60.4919 41.1047 60.2527 41.4021 60.2527H43.032C43.3294 60.2527 43.5723 60.4919 43.5723 60.785V68.6586C43.5723 68.9517 43.3294 69.1909 43.032 69.1909H41.4021C41.1047 69.1909 40.8619 68.9517 40.8619 68.6586V60.785Z" fill="#0E0D0D"/>
<path d="M51.0689 67.9858L48.7501 58.5303H46.5618V70.8894H48.307V66.1916L48.0004 62.5194L50.0522 70.7698L50.0825 70.8894H52.0766L54.1405 62.5134L53.8491 66.1138V70.8894H55.5973V58.5303H53.409L51.0689 67.9858Z" fill="#0E0D0D"/>
<path d="M60.7327 58.5303H59.376C58.1134 58.5303 57.0875 59.532 57.0875 60.7611V62.1008H58.8114V60.782C58.8114 60.6205 58.863 60.489 58.9693 60.4022C59.0785 60.2946 59.1969 60.2467 59.3547 60.2467H60.7114C60.9725 60.2467 61.2517 60.4501 61.2517 60.779V63.4315H59.1271C57.8979 63.4315 56.8599 64.4542 56.8599 65.6653V68.9666C56.8599 70.1628 57.7461 70.9971 59.0118 70.9971C59.291 70.9971 59.634 70.9223 59.8768 70.8565L61.3427 70.387L61.5522 70.8864H62.9969V60.7581C62.9999 59.553 61.9619 58.5303 60.7327 58.5303ZM59.1271 69.3015C58.86 69.3015 58.5868 69.1101 58.5868 68.7902V65.6683C58.5868 65.4081 58.8661 65.136 59.1271 65.136H61.2517V68.6347L59.3365 69.2866C59.2637 69.3015 59.1878 69.3015 59.1271 69.3015Z" fill="#0E0D0D"/>
</g>
<defs>
<clipPath id="clip0_803_597">
<rect width="63" height="71" fill="white"/>
</clipPath>
</defs>
</svg>
