<svg width="63" height="71" viewBox="0 0 63 71" fill="none" xmlns="http://www.w3.org/2000/svg">
<g clip-path="url(#clip0_116_1617)">
<path fill-rule="evenodd" clip-rule="evenodd" d="M56.2071 35.8993C53.5514 48.2345 39.3137 63.5571 20.7387 48.8236C8.99887 39.5207 -6.21315 13.3999 2.65547 2.59574C5.69969 -1.1123 11.2722 -0.39461 15.6943 1.9289C21.6341 5.04784 32.0294 14.4824 39.6081 10.7026C43.7844 8.60935 46.0516 6.02568 51.8214 4.61423C61.3881 2.27578 63.7524 8.39703 62.8055 13.5823C60.9662 23.6837 46.4128 41.5092 34.1175 48.0073C43.2441 41.4704 29.668 16.5039 24.0561 12.9783C12.5925 5.77748 5.9425 9.95202 8.64073 21.7191C11.0263 32.1464 19.555 43.429 26.3749 48.4648C41.9208 59.9388 53.1508 43.6324 56.2071 35.8993Z" fill="#D30724"/>
<path fill-rule="evenodd" clip-rule="evenodd" d="M56.2071 35.8993C53.5514 48.2345 39.3137 63.5571 20.7387 48.8236C8.99887 39.5207 -6.21315 13.3999 2.65547 2.59574C5.69969 -1.1123 11.2722 -0.39461 15.6943 1.9289C21.6341 5.04784 32.0294 14.4824 39.6081 10.7026C43.7844 8.60935 46.0516 6.02568 51.8214 4.61423C61.3881 2.27578 63.7524 8.39703 62.8055 13.5823C60.9662 23.6837 46.4128 41.5092 34.1175 48.0073C43.2441 41.4704 61.2272 16.5039 57.3392 8.98015C55.421 5.27211 46.9804 11.6685 45.3293 12.748C37.6504 17.7778 29.668 16.5039 24.0561 12.9783C12.5925 5.77748 5.9425 9.95202 8.64073 21.7191C11.0263 32.1464 19.555 43.429 26.3749 48.4648C41.9208 59.9388 53.1508 43.6324 56.2071 35.8993Z" fill="white"/>
<path d="M4.66195 66.5085L2.42203 54.9627H0V70.8894H1.815V64.0743L1.49024 59.0625L3.71499 70.7608L3.73927 70.8894H5.59069L7.83972 59.1642L7.46943 64.0743V70.8894H9.28443V54.9627H6.84116L4.66195 66.5085Z" fill="white"/>
<path d="M12.1162 68.0754L12.3863 64.3076V58.5302H10.6624V70.8894H12.8841L16.0618 61.3232L15.7765 65.7818V70.8894H17.5005V58.5302H15.2788L12.1162 68.0754Z" fill="white"/>
<path d="M26.7121 58.5302H22.8393V70.8894H26.7121C27.9626 70.8894 28.9793 69.8876 28.9793 68.6556V65.9134C28.9793 65.3333 28.6758 64.6276 28.0142 64.2747C28.603 63.9308 28.9793 63.3178 28.9793 62.6569V60.785C28.9763 59.541 27.9626 58.5302 26.7121 58.5302ZM24.5632 65.1359H26.3479C26.8457 65.1359 27.2524 65.5366 27.2524 66.027V68.6586C27.2524 68.9516 27.0096 69.1908 26.7121 69.1908H24.5632V65.1359ZM26.3509 63.4374H24.5663V60.2527H26.7151C27.0126 60.2527 27.2554 60.4919 27.2554 60.785V62.5463C27.2524 63.0367 26.8487 63.4374 26.3509 63.4374Z" fill="white"/>
<path d="M37.3745 58.5302H31.4408V62.4356C31.4408 64.813 31.4408 67.0617 30.5667 69.1908H29.5621V70.9282H38.4398V69.1908H37.3745V58.5302ZM35.6293 60.2527V69.1908H32.4394C33.189 66.984 33.189 64.7711 33.189 62.4356V60.2527H35.6293V60.2527Z" fill="white"/>
<path d="M43.0319 58.5302H41.4021C40.1516 58.5302 39.1379 59.541 39.1379 60.785V68.6586C39.1379 69.8906 40.1546 70.8924 41.4021 70.8924H43.0319C44.2824 70.8924 45.2992 69.8906 45.2992 68.6586V60.785C45.2992 59.541 44.2824 58.5302 43.0319 58.5302ZM40.8618 60.785C40.8618 60.4919 41.1046 60.2527 41.4021 60.2527H43.0319C43.3294 60.2527 43.5722 60.4919 43.5722 60.785V68.6586C43.5722 68.9516 43.3294 69.1908 43.0319 69.1908H41.4021C41.1046 69.1908 40.8618 68.9516 40.8618 68.6586V60.785Z" fill="white"/>
<path d="M51.0689 67.9857L48.7501 58.5302H46.5618V70.8894H48.307V66.1915L48.0004 62.5194L50.0522 70.7697L50.0825 70.8894H52.0766L54.1405 62.5134L53.8491 66.1138V70.8894H55.5973V58.5302H53.409L51.0689 67.9857Z" fill="white"/>
<path d="M60.7327 58.5302H59.376C58.1134 58.5302 57.0876 59.532 57.0876 60.761V62.1007H58.8115V60.782C58.8115 60.6205 58.8631 60.4889 58.9693 60.4022C59.0786 60.2945 59.197 60.2467 59.3548 60.2467H60.7115C60.9725 60.2467 61.2517 60.45 61.2517 60.779V63.4314H59.1272C57.8979 63.4314 56.8599 64.4541 56.8599 65.6652V68.9666C56.8599 70.1627 57.7462 70.997 59.0118 70.997C59.2911 70.997 59.634 70.9223 59.8768 70.8565L61.3428 70.387L61.5522 70.8864H62.9969V60.758C63 59.5529 61.962 58.5302 60.7327 58.5302ZM59.1272 69.3015C58.8601 69.3015 58.5869 69.1101 58.5869 68.7901V65.6682C58.5869 65.408 58.8661 65.1359 59.1272 65.1359H61.2517V68.6346L59.3366 69.2865C59.2637 69.3015 59.1879 69.3015 59.1272 69.3015Z" fill="white"/>
</g>
<defs>
<clipPath id="clip0_116_1617">
<rect width="63" height="71" fill="white"/>
</clipPath>
</defs>
</svg>
